<?xml version="1.0" encoding="UTF-8"?>
<svg version="1.1" xmlns="http://www.w3.org/2000/svg" width="512" height="512" viewBox="88 83 338 350">
<path d="M0 0 C168.96 0 337.92 0 512 0 C512 168.96 512 337.92 512 512 C343.04 512 174.08 512 0 512 C0 343.04 0 174.08 0 0 Z " fill="#000000" transform="translate(0,0)"/>
<path d="M0 0 C3.0625 0.6875 3.0625 0.6875 4.34985352 2.22558594 C7.17570534 6.8916724 9.38607981 11.43464922 11.0625 16.625 C11.31104736 17.39094482 11.55959473 18.15688965 11.81567383 18.94604492 C20.68122865 47.49714199 22.5929313 77.68651618 22.39868164 107.39916992 C22.37498368 111.25265435 22.37817253 115.10544464 22.38476562 118.95898438 C22.36595587 134.97587317 21.61655724 150.84248459 20.2956543 166.8031311 C19.96890509 170.84536953 19.69743697 174.89049965 19.4375 178.9375 C19.36273438 180.07703125 19.28796875 181.2165625 19.2109375 182.390625 C19.13746094 183.52757812 19.13746094 183.52757812 19.0625 184.6875 C17.7425 184.6875 16.4225 184.6875 15.0625 184.6875 C13.62133789 183.18481445 13.62133789 183.18481445 12.28515625 181.05078125 C11.52513306 179.85980835 11.52513306 179.85980835 10.74975586 178.64477539 C9.94550171 177.33561157 9.94550171 177.33561157 9.125 176 C8.55724854 175.09950928 7.98949707 174.19901855 7.40454102 173.27124023 C6.2087416 171.36919908 5.01967845 169.46290851 3.83691406 167.55273438 C2.15277956 164.83327889 0.45045858 162.12621362 -1.2578125 159.421875 C-8.83306381 147.37540553 -16.04122784 135.13478054 -22.9375 122.6875 C-23.38754395 121.87539062 -23.83758789 121.06328125 -24.30126953 120.2265625 C-32.32155657 105.64314981 -39.03030975 90.70564143 -44.375 74.9375 C-44.62217773 74.21103271 -44.86935547 73.48456543 -45.12402344 72.73608398 C-49.17038655 60.35022998 -50.72553744 43.11084051 -45.8125 30.8125 C-43.36621853 26.02301071 -40.47329166 21.73343076 -36.9375 17.6875 C-36.46054688 17.09453125 -35.98359375 16.5015625 -35.4921875 15.890625 C-26.58635467 5.77646309 -12.75608342 2.22725266 0 0 Z " fill="#FDFDFD" transform="translate(228.9375,87.3125)"/>
<path d="M0 0 C11.79789328 1.3049185 23.55431508 4.7014946 32.828125 12.34765625 C33.43914062 12.8478125 34.05015625 13.34796875 34.6796875 13.86328125 C42.57679388 21.02981832 48.58538134 31.52270907 49.234375 42.2265625 C49.62127241 56.23919303 47.65892824 68.21253388 42.828125 81.34765625 C42.54437012 82.11964355 42.26061523 82.89163086 41.96826172 83.68701172 C39.82596694 89.35251455 37.38881907 94.86016411 34.828125 100.34765625 C34.38114258 101.30736328 33.93416016 102.26707031 33.47363281 103.25585938 C25.08734825 121.04494785 15.23541162 137.70084077 4.828125 154.34765625 C3.84236236 155.94445669 2.8578072 157.54200383 1.875 159.140625 C-3.59880867 168.01645307 -9.33635808 176.70612482 -15.171875 185.34765625 C-16.161875 185.01765625 -17.151875 184.68765625 -18.171875 184.34765625 C-18.23246094 183.26226562 -18.29304688 182.176875 -18.35546875 181.05859375 C-18.43993564 179.61327139 -18.52458051 178.16795943 -18.609375 176.72265625 C-18.64869141 176.00980469 -18.68800781 175.29695312 -18.72851562 174.5625 C-18.77041016 173.85996094 -18.81230469 173.15742188 -18.85546875 172.43359375 C-18.91045532 171.47525635 -18.91045532 171.47525635 -18.96655273 170.49755859 C-19.15245159 168.24348648 -19.15245159 168.24348648 -19.65722656 165.62695312 C-20.27529179 161.6886931 -20.52932109 157.76957832 -20.72265625 153.79296875 C-20.76449539 152.93406036 -20.80633453 152.07515198 -20.84944153 151.19021606 C-21.34693416 139.81840358 -21.35790374 128.44038882 -21.35717773 117.05957031 C-21.35935978 113.24923443 -21.37758026 109.43919115 -21.39648438 105.62890625 C-21.62991086 3.46234185 -21.62991086 3.46234185 0 0 Z " fill="#FDFDFD" transform="translate(282.171875,87.65234375)"/>
<path d="M0 0 C13.39753802 6.30174014 21.16182601 23.8370327 26 37 C26.433125 38.11375 26.86625 39.2275 27.3125 40.375 C29.94061461 54.2323316 27.02310015 66.09475868 19.484375 77.83203125 C14.62530721 84.92882762 8.74081235 89.69193394 2 95 C1.06542969 95.76183594 0.13085938 96.52367187 -0.83203125 97.30859375 C-17.24203677 110.40648806 -35.67690863 120.8444739 -54 131 C-54.94504395 131.52400391 -55.89008789 132.04800781 -56.86376953 132.58789062 C-86.5474607 149 -86.5474607 149 -90 149 C-89.43495393 144.36444896 -88.16520962 140.82716942 -86.078125 136.66015625 C-85.78191757 136.06506256 -85.48571014 135.46996887 -85.18052673 134.85684204 C-84.21268452 132.92071842 -83.23221588 130.99136686 -82.25 129.0625 C-81.91497467 128.3986026 -81.57994934 127.7347052 -81.23477173 127.0506897 C-74.88537706 114.47063179 -68.09381127 102.17587322 -61 90 C-60.15297925 88.52642463 -59.30658698 87.05248775 -58.4609375 85.578125 C-48.44416055 68.21787186 -37.53289532 51.38790835 -26 35 C-25.6095752 34.44006348 -25.21915039 33.88012695 -24.81689453 33.30322266 C-16.89373767 21.94190402 -8.43595802 10.98278097 0 0 Z " fill="#FDFDFD" transform="translate(369,132)"/>
<path d="M0 0 C3.45856376 1.15285459 4.03306966 2.01237229 6.15234375 4.875 C6.75780029 5.68662598 7.36325684 6.49825195 7.98706055 7.33447266 C8.63070557 8.21409668 9.27435059 9.0937207 9.9375 10 C10.60628174 10.90411621 11.27506348 11.80823242 11.96411133 12.73974609 C40.76838059 51.82415382 66.82210177 93.1384512 87.875 136.9375 C88.29813477 137.81365967 88.72126953 138.68981934 89.15722656 139.5925293 C89.53588867 140.39601807 89.91455078 141.19950684 90.3046875 142.02734375 C90.7994458 143.07523071 90.7994458 143.07523071 91.30419922 144.14428711 C92 146 92 146 92 149 C87.95059095 148.39219666 84.89862053 147.08307729 81.30078125 145.1484375 C80.18735352 144.55232666 79.07392578 143.95621582 77.92675781 143.34204102 C76.72166384 142.68698831 75.51692025 142.03129064 74.3125 141.375 C73.69596558 141.04120331 73.07943115 140.70740662 72.44421387 140.36349487 C45.49672126 125.77336235 18.60332149 110.70731244 -5 91 C-5.84433594 90.33097656 -6.68867188 89.66195312 -7.55859375 88.97265625 C-18.1973583 80.19971213 -24.91638062 68.48744269 -26.33984375 54.7109375 C-26.92342168 35.14940543 -17.01610097 18.01139551 -4.09765625 3.92578125 C-2.76638934 2.58198477 -1.38993672 1.28301851 0 0 Z " fill="#FDFDFD" transform="translate(141,132)"/>
<path d="M0 0 C3.75636093 0.59077541 6.6017136 1.65975166 9.9296875 3.484375 C10.87763184 4.0004834 11.82557617 4.5165918 12.80224609 5.04833984 C13.81625488 5.6098877 14.83026367 6.17143555 15.875 6.75 C16.93928223 7.33346191 18.00356445 7.91692383 19.10009766 8.51806641 C30.12315869 14.5790406 41.07888063 20.75756501 52 27 C53.00724121 27.57443848 54.01448242 28.14887695 55.05224609 28.74072266 C77.21407793 41.39321496 99.19151107 54.37860517 120.8125 67.9375 C121.73772461 68.51056885 122.66294922 69.0836377 123.61621094 69.67407227 C124.86772949 70.46769165 124.86772949 70.46769165 126.14453125 71.27734375 C126.87003174 71.73359131 127.59553223 72.18983887 128.34301758 72.65991211 C130 74 130 74 131 77 C120.14196988 77.0930928 109.28403628 77.16396308 98.42568684 77.20724869 C93.38252374 77.22803419 88.33963571 77.25618478 83.29663086 77.30175781 C78.42068504 77.34554035 73.54500212 77.36920489 68.66887474 77.37950897 C66.81792252 77.38684262 64.96698304 77.40116184 63.11614418 77.42292023 C45.12187173 77.62585358 29.78699814 74.47280874 16.19580078 61.73339844 C4.4141055 50.13848166 -2.09943949 36.33748468 -2.43603516 19.7277832 C-2.43968507 12.77529936 -2.23847256 6.62551917 0 0 Z " fill="#FDFDFD" transform="translate(94,216)"/>
<path d="M0 0 C4.62363628 11.16304218 3.39801159 27.95019151 -1 39 C-8.54412856 56.05095723 -20.91397697 67.86187606 -38.125 74.6875 C-44.04089089 76.95991302 -50.02955369 77.14340459 -56.30029297 77.11352539 C-57.11071548 77.11367142 -57.921138 77.11381744 -58.75611877 77.1139679 C-61.4181695 77.11327471 -64.08014909 77.10551023 -66.7421875 77.09765625 C-68.59449221 77.09578996 -70.44679741 77.09436705 -72.29910278 77.09336853 C-77.1619606 77.08955997 -82.02478831 77.07974392 -86.88763428 77.06866455 C-91.85477288 77.05841466 -96.82191636 77.05386325 -101.7890625 77.04882812 C-111.52605486 77.03812012 -121.26302492 77.02106371 -131 77 C-129.80119318 73.40357953 -128.93049763 73.03220663 -125.79296875 71.06640625 C-124.90689941 70.50630859 -124.02083008 69.94621094 -123.10791016 69.36914062 C-122.1441748 68.77294922 -121.18043945 68.17675781 -120.1875 67.5625 C-119.19282715 66.93923828 -118.1981543 66.31597656 -117.17333984 65.67382812 C-107.52671952 59.65215625 -97.79700329 53.77326639 -88 48 C-86.59645264 47.17266357 -86.59645264 47.17266357 -85.16455078 46.32861328 C-65.38516593 34.69078435 -45.41872826 23.38750475 -25.33007812 12.29296875 C-22.73042033 10.85040927 -20.13866985 9.39413593 -17.546875 7.9375 C-15.71882781 6.91652734 -13.89070433 5.89569126 -12.0625 4.875 C-11.20309814 4.3888623 -10.34369629 3.90272461 -9.45825195 3.40185547 C-8.65863037 2.95729004 -7.85900879 2.51272461 -7.03515625 2.0546875 C-5.97373413 1.45889893 -5.97373413 1.45889893 -4.89086914 0.85107422 C-3 0 -3 0 0 0 Z " fill="#FDFDFD" transform="translate(418,216)"/>
<path d="M0 0 C-1.30554278 3.91662835 -2.95847487 4.60210523 -6.37109375 6.87890625 C-6.92066238 7.24752777 -7.47023102 7.61614929 -8.03645325 7.99594116 C-9.83071654 9.19425671 -11.63333872 10.37914813 -13.4375 11.5625 C-14.04758911 11.9660672 -14.65767822 12.3696344 -15.28625488 12.78543091 C-51.67258176 36.8396921 -51.67258176 36.8396921 -69 34 C-82.85174349 30.03588413 -93.73532728 19.04456182 -101 7 C-101.36492162 5.67496374 -101.704284 4.34217768 -102 3 C-52.00127865 0.98660781 -52.00127865 0.98660781 -28.5 0.375 C-27.73451843 0.35462677 -26.96903687 0.33425354 -26.18035889 0.31326294 C-17.45261812 0.08388472 -8.73112906 -0.05628951 0 0 Z " fill="#FBFBFB" transform="translate(224,301)"/>
<path d="M0 0 C34.0221861 0.54276639 68.00378077 1.567329 102 3 C96.79720636 16.53518292 86.51518996 25.72277815 73.69921875 31.87109375 C66.68920051 34.80292482 58.32305437 35.76695107 51.00976562 33.33935547 C46.81749354 31.56657048 42.86331034 29.3796149 38.92431641 27.10693359 C37.14940174 26.08594107 35.34714658 25.11287528 33.54296875 24.14453125 C23.22257748 18.50976582 13.57063745 11.814379 4 5 C3.25637207 4.48735596 2.51274414 3.97471191 1.74658203 3.4465332 C1.17020996 2.96917725 0.59383789 2.49182129 0 2 C0 1.34 0 0.68 0 0 Z " fill="#FBFBFB" transform="translate(288,301)"/>
<path d="M0 0 C3.96 0 7.92 0 12 0 C15.24078479 7.75160687 17.82907539 15.58356023 20.25 23.625 C21.4875 27.70875 22.725 31.7925 24 36 C27.96 24.12 31.92 12.24 36 0 C39.3 0 42.6 0 46 0 C49.06908387 7.45151444 51.738371 14.96918273 54.25 22.625 C54.61351562 23.72457031 54.97703125 24.82414062 55.3515625 25.95703125 C56.23715622 28.63711752 57.11991207 31.31810177 58 34 C59.91208641 30.48298965 61.1282428 26.84275257 62.3828125 23.046875 C62.60194305 22.38665344 62.82107361 21.72643188 63.04684448 21.04620361 C63.74239825 18.9483953 64.43375447 16.84923137 65.125 14.75 C65.59737938 13.322825 66.07003264 11.89574061 66.54296875 10.46875 C67.69848603 6.98021048 68.8502442 3.49044323 70 0 C73.96 0 77.92 0 82 0 C69.11811831 39.05842411 69.11811831 39.05842411 63 55 C60.03 55 57.06 55 54 55 C51.01770437 47.74294685 48.31917984 40.41255961 45.75 33 C45.38648438 31.96488281 45.02296875 30.92976563 44.6484375 29.86328125 C44.30554688 28.87714844 43.96265625 27.89101563 43.609375 26.875 C43.29967773 25.98554688 42.98998047 25.09609375 42.67089844 24.1796875 C42 22 42 22 42 20 C41.34 20 40.68 20 40 20 C39.76539063 21.20527344 39.53078125 22.41054688 39.2890625 23.65234375 C37.84933895 30.13109972 35.58776296 36.31490209 33.375 42.5625 C32.95476562 43.76197266 32.53453125 44.96144531 32.1015625 46.19726562 C31.07225134 49.13314177 30.03830116 52.06729381 29 55 C25.7 55 22.4 55 19 55 C16.6150903 48.13167335 14.23066334 41.26317938 11.84667969 34.39453125 C11.03593941 32.05887341 10.22506823 29.723261 9.4140625 27.38769531 C8.24704966 24.02681276 7.08051073 20.66576604 5.9140625 17.3046875 C5.55253082 16.26384003 5.19099915 15.22299255 4.81851196 14.15060425 C3.18505178 9.44248083 1.55900872 4.73346086 0 0 Z " fill="#F8F8F8" transform="translate(263,368)"/>
<path d="M0 0 C3.3 0 6.6 0 10 0 C14.94302989 9.62629235 19.44183776 19.36239662 23.6875 29.3125 C24.5236544 31.2612616 25.3609738 33.2095192 26.19851685 35.15768433 C26.98867808 36.99714363 27.77635898 38.83766777 28.56396484 40.67822266 C30.11165249 44.25826993 31.70977763 47.81234923 33.34692383 51.35229492 C34 53 34 53 34 55 C30.04 55 26.08 55 22 55 C18 46.375 18 46.375 18 43 C9.42 43 0.84 43 -8 43 C-8.99 45.97 -9.98 48.94 -11 52 C-11.66 52.99 -12.32 53.98 -13 55 C-15.6015625 55.29296875 -15.6015625 55.29296875 -18.625 55.1875 C-20.12933594 55.14689453 -20.12933594 55.14689453 -21.6640625 55.10546875 C-22.43492187 55.07066406 -23.20578125 55.03585937 -24 55 C-22.11370789 49.03414016 -19.94620396 43.30344321 -17.3828125 37.59765625 C-16.87426224 36.45374672 -16.87426224 36.45374672 -16.35543823 35.28672791 C-15.64308585 33.68676379 -14.92871699 32.08769606 -14.21240234 30.48950195 C-13.13013264 28.07395568 -12.05479939 25.6554142 -10.98046875 23.23632812 C-7.48920305 15.3986756 -3.9275036 7.63167857 0 0 Z " fill="#F8F8F8" transform="translate(233,368)"/>
<path d="M0 0 C3.63 0 7.26 0 11 0 C11 7.26 11 14.52 11 22 C19.58 22 28.16 22 37 22 C37 14.74 37 7.48 37 0 C40.63 0 44.26 0 48 0 C48 18.15 48 36.3 48 55 C44.37 55 40.74 55 37 55 C37 47.41 37 39.82 37 32 C28.42 32 19.84 32 11 32 C11 39.59 11 47.18 11 55 C7.37 55 3.74 55 0 55 C0 36.85 0 18.7 0 0 Z " fill="#FCFCFC" transform="translate(92,368)"/>
<path d="M0 0 C13.53 0 27.06 0 41 0 C41 3.3 41 6.6 41 10 C31.1 10 21.2 10 11 10 C11 13.63 11 17.26 11 21 C17.93 21 24.86 21 32 21 C32 24.3 32 27.6 32 31 C25.07 31 18.14 31 11 31 C11 35.62 11 40.24 11 45 C21.23 45 31.46 45 42 45 C42 48.3 42 51.6 42 55 C28.14 55 14.28 55 0 55 C0 36.85 0 18.7 0 0 Z " fill="#F9F9F9" transform="translate(354,368)"/>
<path d="M0 0 C3.96 0 7.92 0 12 0 C12.01458252 1.12494873 12.02916504 2.24989746 12.04418945 3.40893555 C12.10227754 7.59317387 12.17950964 11.77687997 12.26245117 15.96069336 C12.29565114 17.76952458 12.32369841 19.57845818 12.34643555 21.38745117 C12.38007258 23.99181633 12.43239195 26.5952476 12.48828125 29.19921875 C12.49467117 30.00461594 12.5010611 30.81001312 12.50764465 31.63981628 C12.62696816 36.22373924 13.03467305 39.28339276 16 43 C20.24740799 45.83160532 24.01346043 45.64522317 29 45 C33.15552064 42.66251964 34.59569294 40.46523977 36 36 C36.23144735 33.2557716 36.37118378 30.60155705 36.4140625 27.85546875 C36.43342865 27.08568192 36.4527948 26.31589508 36.4727478 25.52278137 C36.53225623 23.07779829 36.57881295 20.63276738 36.625 18.1875 C36.66320631 16.52406866 36.70225957 14.86065653 36.7421875 13.19726562 C36.83793383 9.13166759 36.92207009 5.06597699 37 1 C40.63 1 44.26 1 48 1 C48.0997145 6.08620644 48.17186281 11.17182992 48.21972656 16.25878906 C48.23970285 17.98512702 48.26689372 19.71139853 48.30175781 21.4375 C48.72010563 42.69941274 48.72010563 42.69941274 42.32250977 49.88378906 C37.03713729 54.90635297 31.39385978 57.15190475 24.125 57.4375 C17.50693509 57.23895805 12.27979847 55.8410535 7.21875 51.45703125 C1.07666887 44.87838062 -0.46388399 37.62553976 -0.29296875 28.90625 C-0.28872391 28.07411987 -0.28447906 27.24198975 -0.28010559 26.38464355 C-0.26346307 23.75608407 -0.22583976 21.12832333 -0.1875 18.5 C-0.17243444 16.70574033 -0.15874933 14.9114685 -0.14648438 13.1171875 C-0.11360714 8.74448917 -0.06192722 4.37237947 0 0 Z " fill="#F5F5F5" transform="translate(155,367)"/>
<path d="M0 0 C3.63 0 7.26 0 11 0 C11 18.48 11 36.96 11 56 C7.37 56 3.74 56 0 56 C0 37.52 0 19.04 0 0 Z " fill="#F2F2F2" transform="translate(409,367)"/>
<path d="M0 0 C3.29737324 2.68344789 4.61094587 6.2359501 6.1875 10.0625 C6.46013672 10.69994141 6.73277344 11.33738281 7.01367188 11.99414062 C9 16.71851504 9 16.71851504 9 19 C3.72 19 -1.56 19 -7 19 C-6.10656817 14.53284086 -4.76463639 10.80385599 -2.9375 6.6875 C-2.65583984 6.04232422 -2.37417969 5.39714844 -2.08398438 4.73242188 C-1.3937257 3.15301642 -0.69746802 1.57623507 0 0 Z " fill="#0B0B0B" transform="translate(237,382)"/>
</svg>
