<?xml version="1.0" encoding="UTF-8"?>
<svg version="1.1" xmlns="http://www.w3.org/2000/svg" width="250" height="50">
<path d="M0 0 C16.5 0 33 0 50 0 C50 16.5 50 33 50 50 C33.5 50 17 50 0 50 C0 33.5 0 17 0 0 Z " fill="#FDFDFD" transform="translate(0,0)"/>
<path d="M0 0 C0 0.66 0 1.32 0 2 C-0.66 2 -1.32 2 -2 2 C-1.34 3.65 -0.68 5.3 0 7 C3.465 6.505 3.465 6.505 7 6 C4.8614515 3.8614515 3.86724686 3.57344937 1 3 C1.33 2.01 1.66 1.02 2 0 C4.31 0.66 6.62 1.32 9 2 C9 2.66 9 3.32 9 4 C9.66 4 10.32 4 11 4 C12.5625 6.8125 12.5625 6.8125 14 10 C13.67 10.99 13.34 11.98 13 13 C12.71125 12.360625 12.4225 11.72125 12.125 11.0625 C11.17176549 8.84793921 11.17176549 8.84793921 9 8 C9.39753821 9.46366342 9.81881384 10.9208935 10.25 12.375 C10.59804687 13.59316406 10.59804687 13.59316406 10.953125 14.8359375 C12.2214892 17.45785454 13.32423308 17.99382318 16 19 C14.92598892 21.91517292 14.22189824 23.77810176 12 26 C11.896875 27.175625 11.79375 28.35125 11.6875 29.5625 C11.16540057 34.56366299 9.31021787 39.17987484 6 43 C3.328125 43.75390625 3.328125 43.75390625 1 44 C-1.11137763 38.45763373 -2.23087354 34.00271204 -2 28 C-2.28520405 26.32442621 -2.59955696 24.65182755 -3 23 C-3.61488281 22.96261719 -4.22976562 22.92523437 -4.86328125 22.88671875 C-5.67152344 22.82097656 -6.47976562 22.75523438 -7.3125 22.6875 C-8.11300781 22.62949219 -8.91351563 22.57148438 -9.73828125 22.51171875 C-12.42298549 21.90429862 -13.37646645 21.20078992 -15 19 C-15.55733091 13.9840218 -14.9673946 11.08016757 -12 7 C-15.82669043 10.42388092 -17.72278474 13.00724943 -19 18 C-19.99 17.67 -20.98 17.34 -22 17 C-20.65686815 13.21908383 -18.97035316 10.34348084 -16.5 7.1875 C-15.8915625 6.39730469 -15.283125 5.60710938 -14.65625 4.79296875 C-13.83640625 3.90544922 -13.83640625 3.90544922 -13 3 C-12.34 3 -11.68 3 -11 3 C-11 2.34 -11 1.68 -11 1 C-7.26562152 0.12132271 -3.83225427 -0.08912219 0 0 Z " fill="#92D4E7" transform="translate(23,1)"/>
<path d="M0 0 C1.134375 0.020625 2.26875 0.04125 3.4375 0.0625 C3.7675 1.7125 4.0975 3.3625 4.4375 5.0625 C4.7675 3.4125 5.0975 1.7625 5.4375 0.0625 C7.7475 0.0625 10.0575 0.0625 12.4375 0.0625 C12.4375 0.7225 12.4375 1.3825 12.4375 2.0625 C11.7775 2.0625 11.1175 2.0625 10.4375 2.0625 C10.4375 3.3825 10.4375 4.7025 10.4375 6.0625 C11.0975 6.0625 11.7575 6.0625 12.4375 6.0625 C12.4375 6.7225 12.4375 7.3825 12.4375 8.0625 C11.7775 8.0625 11.1175 8.0625 10.4375 8.0625 C10.4375 9.7125 10.4375 11.3625 10.4375 13.0625 C11.4275 13.0625 12.4175 13.0625 13.4375 13.0625 C13.4375 8.7725 13.4375 4.4825 13.4375 0.0625 C22.77083333 0.0625 32.10416667 0.0625 41.4375 0.0625 C42.613125 0.041875 43.78875 0.02125 45 0 C48.4375 0.0625 48.4375 0.0625 49.4375 1.0625 C49.47813832 2.72867115 49.480221 4.39638095 49.4375 6.0625 C47.7875 6.0625 46.1375 6.0625 44.4375 6.0625 C44.4375 6.7225 44.4375 7.3825 44.4375 8.0625 C46.0875 8.0625 47.7375 8.0625 49.4375 8.0625 C49.4375 10.0425 49.4375 12.0225 49.4375 14.0625 C46.71898823 15.42175589 44.44632974 15.12518395 41.4375 15.0625 C40.7775 15.0625 40.1175 15.0625 39.4375 15.0625 C37.77083333 15.0625 36.10416667 15.0625 34.4375 15.0625 C33.9425 12.0925 33.9425 12.0925 33.4375 9.0625 C33.1075 11.0425 32.7775 13.0225 32.4375 15.0625 C30.1275 15.0625 27.8175 15.0625 25.4375 15.0625 C25.1075 12.0925 24.7775 9.1225 24.4375 6.0625 C23.7775 6.0625 23.1175 6.0625 22.4375 6.0625 C22.7675 6.7225 23.0975 7.3825 23.4375 8.0625 C23.47772391 10.3954866 23.48070247 12.72956666 23.4375 15.0625 C14.4375 15.0625 5.4375 15.0625 -3.5625 15.0625 C-3.8925 13.4125 -4.2225 11.7625 -4.5625 10.0625 C-3.9025 9.7325 -3.2425 9.4025 -2.5625 9.0625 C-3.2225 8.4025 -3.8825 7.7425 -4.5625 7.0625 C-4.75 4 -4.75 4 -4.5625 1.0625 C-3.5625 0.0625 -3.5625 0.0625 0 0 Z M-0.5625 3.0625 C0.4375 5.0625 0.4375 5.0625 0.4375 5.0625 Z M-0.5625 10.0625 C0.4375 13.0625 0.4375 13.0625 0.4375 13.0625 Z " fill="#4E95B2" transform="translate(178.5625,28.9375)"/>
<path d="M0 0 C2.31 0 4.62 0 7 0 C7 0.66 7 1.32 7 2 C6.34 2 5.68 2 5 2 C5 3.32 5 4.64 5 6 C5.66 6 6.32 6 7 6 C7 6.66 7 7.32 7 8 C6.34 8 5.68 8 5 8 C5 9.65 5 11.3 5 13 C5.99 13 6.98 13 8 13 C8 8.71 8 4.42 8 0 C15.59 0 23.18 0 31 0 C31 0.66 31 1.32 31 2 C30.34 2 29.68 2 29 2 C29 3.32 29 4.64 29 6 C29.66 6 30.32 6 31 6 C31 6.66 31 7.32 31 8 C30.34 8 29.68 8 29 8 C29 9.65 29 11.3 29 13 C29.99 13 30.98 13 32 13 C32 8.71 32 4.42 32 0 C34.97 0 37.94 0 41 0 C41 0.66 41 1.32 41 2 C41.99 1.34 42.98 0.68 44 0 C47.0625 -0.25 47.0625 -0.25 50 0 C52 2 52 2 52 5 C51.34 5.33 50.68 5.66 50 6 C50.66 6.66 51.32 7.32 52 8 C52.1875 11.0625 52.1875 11.0625 52 14 C51 15 51 15 47.5625 15.0625 C46.386875 15.041875 45.21125 15.02125 44 15 C43.34 15 42.68 15 42 15 C36 15 30 15 24 15 C24 12.69 24 10.38 24 8 C23.01 8 22.02 8 21 8 C21 10.31 21 12.62 21 15 C14.07 15 7.14 15 0 15 C0 10.05 0 5.1 0 0 Z M13 2 C13 3.32 13 4.64 13 6 C13.99 6 14.98 6 16 6 C16 4.68 16 3.36 16 2 C15.01 2 14.02 2 13 2 Z M21 2 C21 3.32 21 4.64 21 6 C21.99 6 22.98 6 24 6 C24 4.68 24 3.36 24 2 C23.01 2 22.02 2 21 2 Z M41 6 C41.33 7.32 41.66 8.64 42 10 C43.65 10 45.3 10 47 10 C45.68 9.34 44.36 8.68 43 8 C43 7.34 43 6.68 43 6 C42.34 6 41.68 6 41 6 Z M13 8 C13 9.65 13 11.3 13 13 C13.99 13 14.98 13 16 13 C16 11.35 16 9.7 16 8 C15.01 8 14.02 8 13 8 Z " fill="#4E95B2" transform="translate(173,6)"/>
<path d="M0 0 C2.97 0 5.94 0 9 0 C10.125 5.75 10.125 5.75 9 8 C9.66 8 10.32 8 11 8 C10.979375 6.865625 10.95875 5.73125 10.9375 4.5625 C11 1 11 1 12 0 C13.53825575 -0.08690183 15.08041369 -0.10701815 16.62109375 -0.09765625 C17.55630859 -0.09443359 18.49152344 -0.09121094 19.45507812 -0.08789062 C20.43927734 -0.07951172 21.42347656 -0.07113281 22.4375 -0.0625 C23.90799805 -0.05573242 23.90799805 -0.05573242 25.40820312 -0.04882812 C27.93885035 -0.03663643 30.46939576 -0.01877517 33 0 C34.8542837 0 36.70850159 -0.02997371 38.5625 -0.0625 C42 0 42 0 43 1 C43.0989294 3.16480797 43.129711 5.33293785 43.125 7.5 C43.12886719 9.27890625 43.12886719 9.27890625 43.1328125 11.09375 C43 14 43 14 42 15 C39.66705225 15.04241723 37.33297433 15.04092937 35 15 C34.34 15 33.68 15 33 15 C31.35 15 29.7 15 28 15 C28 10.71 28 6.42 28 2 C27.34 2 26.68 2 26 2 C26 6.29 26 10.58 26 15 C24.35 15 22.7 15 21 15 C21 10.71 21 6.42 21 2 C20.01 2 19.02 2 18 2 C18.144375 2.60328125 18.28875 3.2065625 18.4375 3.828125 C18.623125 4.62734375 18.80875 5.4265625 19 6.25 C19.185625 7.03890625 19.37125 7.8278125 19.5625 8.640625 C20 11 20 11 20 15 C18.35 15 16.7 15 15 15 C15.33 14.01 15.66 13.02 16 12 C15.34 12 14.68 12 14 12 C14 12.99 14 13.98 14 15 C9.38 15 4.76 15 0 15 C0 10.05 0 5.1 0 0 Z M38 3 C38 5.97 38 8.94 38 12 C38.33 12 38.66 12 39 12 C39 9.03 39 6.06 39 3 C38.67 3 38.34 3 38 3 Z M14 7 C15 10 15 10 15 10 Z " fill="#4E95B2" transform="translate(116,29)"/>
<path d="M0 0 C8.58 0 17.16 0 26 0 C26.33 2.31 26.66 4.62 27 7 C27.33 4.69 27.66 2.38 28 0 C29.65 0 31.3 0 33 0 C33 4.29 33 8.58 33 13 C33.66 13 34.32 13 35 13 C35 13.66 35 14.32 35 15 C27.41 15 19.82 15 12 15 C12 10.71 12 6.42 12 2 C11.01 2 10.02 2 9 2 C9 6.29 9 10.58 9 15 C6.03 15 3.06 15 0 15 C0 10.05 0 5.1 0 0 Z M17 2 C17 5.63 17 9.26 17 13 C17.33 13 17.66 13 18 13 C18.33 9.37 18.66 5.74 19 2 C18.34 2 17.68 2 17 2 Z M22 6 C23 10 23 10 23 10 Z " fill="#4E95B2" transform="translate(124,6)"/>
<path d="M0 0 C0 0.66 0 1.32 0 2 C-0.66 2 -1.32 2 -2 2 C-1.34 3.65 -0.68 5.3 0 7 C3.465 6.505 3.465 6.505 7 6 C4.8614515 3.8614515 3.86724686 3.57344937 1 3 C1.33 2.01 1.66 1.02 2 0 C4.31 0.66 6.62 1.32 9 2 C9 2.66 9 3.32 9 4 C9.66 4 10.32 4 11 4 C12.5625 6.8125 12.5625 6.8125 14 10 C13.67 10.99 13.34 11.98 13 13 C12.731875 12.360625 12.46375 11.72125 12.1875 11.0625 C11.11332248 8.66868314 11.11332248 8.66868314 8 8 C8 9.65 8 11.3 8 13 C7.34 13 6.68 13 6 13 C5.01 13.495 5.01 13.495 4 14 C3.34 13.67 2.68 13.34 2 13 C2 12.01 2 11.02 2 10 C1.34 10 0.68 10 0 10 C-0.66 12.97 -1.32 15.94 -2 19 C-1.34 19.33 -0.68 19.66 0 20 C0.33 20.99 0.66 21.98 1 23 C-1.10494301 22.91291962 -3.20902142 22.80474307 -5.3125 22.6875 C-6.48425781 22.62949219 -7.65601563 22.57148438 -8.86328125 22.51171875 C-12 22 -12 22 -13.89453125 20.66796875 C-15.78732727 17.81205391 -15.34289078 15.31461085 -15 12 C-13.5 9.0625 -13.5 9.0625 -12 7 C-15.82669043 10.42388092 -17.72278474 13.00724943 -19 18 C-19.99 17.67 -20.98 17.34 -22 17 C-20.65686815 13.21908383 -18.97035316 10.34348084 -16.5 7.1875 C-15.8915625 6.39730469 -15.283125 5.60710938 -14.65625 4.79296875 C-13.83640625 3.90544922 -13.83640625 3.90544922 -13 3 C-12.34 3 -11.68 3 -11 3 C-11 2.34 -11 1.68 -11 1 C-7.26562152 0.12132271 -3.83225427 -0.08912219 0 0 Z " fill="#50C2D6" transform="translate(23,1)"/>
<path d="M0 0 C7.92 0 15.84 0 24 0 C24 4.95 24 9.9 24 15 C22.35 15 20.7 15 19 15 C19 10.71 19 6.42 19 2 C18.34 2 17.68 2 17 2 C17 6.29 17 10.58 17 15 C15.35 15 13.7 15 12 15 C12 10.71 12 6.42 12 2 C11.34 2 10.68 2 10 2 C10 6.29 10 10.58 10 15 C6.7 15 3.4 15 0 15 C0 10.05 0 5.1 0 0 Z " fill="#4E95B2" transform="translate(80,6)"/>
<path d="M0 0 C3.375 -0.125 3.375 -0.125 7 0 C7.66 0.66 8.32 1.32 9 2 C9.66 1.34 10.32 0.68 11 0 C14.5625 -0.1875 14.5625 -0.1875 18 0 C19 1 19 1 19.1328125 3.90625 C19.13023438 5.0921875 19.12765625 6.278125 19.125 7.5 C19.12886719 9.27890625 19.12886719 9.27890625 19.1328125 11.09375 C19 14 19 14 18 15 C14.5625 15.1875 14.5625 15.1875 11 15 C10.34 14.34 9.68 13.68 9 13 C8.34 13.66 7.68 14.32 7 15 C3.375 15.125 3.375 15.125 0 15 C-2.33486745 11.35176961 -2.30399283 8.25589957 -2 4 C-1 1.5625 -1 1.5625 0 0 Z M3 2 C3 5.63 3 9.26 3 13 C3.33 13 3.66 13 4 13 C4 11.35 4 9.7 4 8 C5.65 8 7.3 8 9 8 C9 7.34 9 6.68 9 6 C7.35 6 5.7 6 4 6 C3.67 4.68 3.34 3.36 3 2 Z " fill="#4E95B2" transform="translate(60,6)"/>
<path d="M0 0 C2.64590014 -0.02684679 5.29153096 -0.04676357 7.9375 -0.0625 C8.69224609 -0.07087891 9.44699219 -0.07925781 10.22460938 -0.08789062 C12.14994313 -0.09652441 14.07535581 -0.05224333 16 0 C17 1 17 1 17.09765625 4.16015625 C17.08605469 5.44792969 17.07445313 6.73570313 17.0625 8.0625 C17.05347656 9.35285156 17.04445313 10.64320312 17.03515625 11.97265625 C17.02355469 12.97167969 17.01195313 13.97070312 17 15 C13.7 15 10.4 15 7 15 C7 12.69 7 10.38 7 8 C6.01 8 5.02 8 4 8 C4 10.31 4 12.62 4 15 C2.68 15 1.36 15 0 15 C0 10.05 0 5.1 0 0 Z M4 2 C4 3.32 4 4.64 4 6 C4.99 6 5.98 6 7 6 C7 4.68 7 3.36 7 2 C6.01 2 5.02 2 4 2 Z " fill="#4E95B2" transform="translate(74,29)"/>
<path d="M0 0 C2.31 0 4.62 0 7 0 C7 0.66 7 1.32 7 2 C6.34 2 5.68 2 5 2 C5 3.32 5 4.64 5 6 C5.66 6 6.32 6 7 6 C7 6.66 7 7.32 7 8 C6.34 8 5.68 8 5 8 C5 9.65 5 11.3 5 13 C5.99 13 6.98 13 8 13 C8 12.01 8 11.02 8 10 C8.66 9.67 9.32 9.34 10 9 C9.34 8.34 8.68 7.68 8 7 C7.8125 3.9375 7.8125 3.9375 8 1 C9 0 9 0 12.5625 -0.0625 C13.696875 -0.041875 14.83125 -0.02125 16 0 C17 4.75 17 4.75 17 7 C17.20625 7.804375 17.4125 8.60875 17.625 9.4375 C18 12 18 12 16 15 C13.2114711 15.22107787 10.65346819 15.28107535 7.875 15.1875 C7.12089844 15.17396484 6.36679688 15.16042969 5.58984375 15.14648438 C3.72625873 15.11109985 1.86304022 15.05729167 0 15 C0 10.05 0 5.1 0 0 Z M12 3 C13 5 13 5 13 5 Z M12 10 C13 13 13 13 13 13 Z " fill="#4E95B2" transform="translate(229,29)"/>
<path d="M0 0 C3.3 0 6.6 0 10 0 C10 4.95 10 9.9 10 15 C6.7 15 3.4 15 0 15 C0 10.05 0 5.1 0 0 Z " fill="#4E95B2" transform="translate(160,29)"/>
<path d="M0 0 C2.97 0 5.94 0 9 0 C10.04225175 5.08097726 10.07822869 9.83690648 10 15 C6.7 15 3.4 15 0 15 C0 10.05 0 5.1 0 0 Z " fill="#4E95B2" transform="translate(55,29)"/>
<path d="M0 0 C3.3 0 6.6 0 10 0 C10 4.95 10 9.9 10 15 C6.7 15 3.4 15 0 15 C0 10.05 0 5.1 0 0 Z " fill="#4E95B2" transform="translate(105,6)"/>
<path d="M0 0 C3 0.25 3 0.25 5 2.25 C5.1953125 5.2890625 5.1953125 5.2890625 5.125 8.875 C5.10695313 10.06351563 5.08890625 11.25203125 5.0703125 12.4765625 C5.04710938 13.39179687 5.02390625 14.30703125 5 15.25 C-1.0546875 15.4453125 -1.0546875 15.4453125 -3 15.25 C-5 13.25 -5 13.25 -5.265625 10.71875 C-5.26046875 9.7390625 -5.2553125 8.759375 -5.25 7.75 C-5.25515625 6.7703125 -5.2603125 5.790625 -5.265625 4.78125 C-4.86151555 0.93032467 -3.79224855 0.31602071 0 0 Z " fill="#4E95B2" transform="translate(102,28.75)"/>
<path d="M0 0 C6.15234375 -0.09765625 6.15234375 -0.09765625 8 0 C9 1 9 1 9.09765625 4.16015625 C9.08605469 5.44792969 9.07445312 6.73570313 9.0625 8.0625 C9.05347656 9.35285156 9.04445312 10.64320312 9.03515625 11.97265625 C9.02355469 12.97167969 9.01195312 13.97070312 9 15 C6.03 15 3.06 15 0 15 C0 10.05 0 5.1 0 0 Z " fill="#4E95B2" transform="translate(163,6)"/>
<path d="M0 0 C0.99 0 1.98 0 3 0 C3 0.99 3 1.98 3 3 C3.66 3.33 4.32 3.66 5 4 C7 6 7 6 7 9 C10.465 8.505 10.465 8.505 14 8 C12.68572639 12.59995763 11.02413514 16.26430365 8 20 C6.68 20 5.36 20 4 20 C1.88959279 14.46018108 0.76461712 10.00226334 1 4 C0.57145005 1.68963085 0.57145005 1.68963085 0 0 Z " fill="#51C2D5" transform="translate(20,25)"/>
<path d="M0 0 C3 0.125 3 0.125 4 1.125 C4.04080783 3.12458364 4.04254356 5.12545254 4 7.125 C4.99 6.795 5.98 6.465 7 6.125 C7 8.105 7 10.085 7 12.125 C3.7 12.125 0.4 12.125 -3 12.125 C-5.26907773 7.58684454 -5.00210012 5.95330058 -4 1.125 C-3 0.125 -3 0.125 0 0 Z " fill="#4E95B2" transform="translate(233,8.875)"/>
<path d="M0 0 C2.64 0.66 5.28 1.32 8 2 C8 2.66 8 3.32 8 4 C8.66 4 9.32 4 10 4 C11.5625 6.8125 11.5625 6.8125 13 10 C12.67 10.99 12.34 11.98 12 13 C11.5978125 12.0409375 11.5978125 12.0409375 11.1875 11.0625 C10.11332248 8.66868314 10.11332248 8.66868314 7 8 C7 9.65 7 11.3 7 13 C6.34 13 5.68 13 5 13 C4.01 13.495 4.01 13.495 3 14 C2.34 13.67 1.68 13.34 1 13 C1 12.01 1 11.02 1 10 C0.34 10 -0.32 10 -1 10 C-1.33 11.32 -1.66 12.64 -2 14 C-2.66 12.68 -3.32 11.36 -4 10 C-3.34 10 -2.68 10 -2 10 C-1.67 9.01 -1.34 8.02 -1 7 C2.465 6.505 2.465 6.505 6 6 C3.8614515 3.8614515 2.86724686 3.57344937 0 3 C0 2.01 0 1.02 0 0 Z " fill="#80CEE3" transform="translate(24,1)"/>
<path d="M0 0 C2.31 0 4.62 0 7 0 C7 0.66 7 1.32 7 2 C6.34 2 5.68 2 5 2 C5 3.32 5 4.64 5 6 C5.66 6 6.32 6 7 6 C7 6.66 7 7.32 7 8 C6.34 8 5.68 8 5 8 C5 9.65 5 11.3 5 13 C5.66 13 6.32 13 7 13 C7 13.66 7 14.32 7 15 C4.69 15 2.38 15 0 15 C0 10.05 0 5.1 0 0 Z " fill="#4E95B2" transform="translate(108,29)"/>
<path d="M0 0 C0.33 0 0.66 0 1 0 C1.55978184 1.57701982 2.09719401 3.16199242 2.625 4.75 C2.92664062 5.63171875 3.22828125 6.5134375 3.5390625 7.421875 C4.07333427 10.41017471 3.62433191 11.49923002 2 14 C2.66 14 3.32 14 4 14 C4 14.66 4 15.32 4 16 C3.34 16 2.68 16 2 16 C1.67 16.66 1.34 17.32 1 18 C0.01 18 -0.98 18 -2 18 C-2 17.34 -2 16.68 -2 16 C-3.32 15.34 -4.64 14.68 -6 14 C-5.01 13.34 -4.02 12.68 -3 12 C-3.99 11.34 -4.98 10.68 -6 10 C-5.01 9.67 -4.02 9.34 -3 9 C-3.66 8.01 -4.32 7.02 -5 6 C-4.34 5.67 -3.68 5.34 -3 5 C-2.67 4.34 -2.34 3.68 -2 3 C-1.67 3.33 -1.34 3.66 -1 4 C-0.67 2.68 -0.34 1.36 0 0 Z " fill="#A9DBEF" transform="translate(31,9)"/>
<path d="M0 0 C0.33 0.99 0.66 1.98 1 3 C2.32 2.67 3.64 2.34 5 2 C3.85072993 10.02773723 3.85072993 10.02773723 0.8125 13.5 C-2.49134012 15.26204807 -5.28706086 15.70878909 -9 16 C-7.88625 14.824375 -7.88625 14.824375 -6.75 13.625 C-3.34920846 9.59443225 -1.74059792 4.92034942 0 0 Z " fill="#D3EEF1" transform="translate(34,31)"/>
<path d="M0 0 C0 0.66 0 1.32 0 2 C-0.66 2 -1.32 2 -2 2 C-2 2.66 -2 3.32 -2 4 C-2.60328125 4.19335938 -3.2065625 4.38671875 -3.828125 4.5859375 C-5.02695312 4.97652344 -5.02695312 4.97652344 -6.25 5.375 C-7.03890625 5.63023437 -7.8278125 5.88546875 -8.640625 6.1484375 C-13.52183352 7.91019819 -15.6238404 9.2476808 -18 14 C-18.69579454 16.19130534 -18.69579454 16.19130534 -19 18 C-19.99 17.67 -20.98 17.34 -22 17 C-20.65686815 13.21908383 -18.97035316 10.34348084 -16.5 7.1875 C-15.8915625 6.39730469 -15.283125 5.60710938 -14.65625 4.79296875 C-13.83640625 3.90544922 -13.83640625 3.90544922 -13 3 C-12.34 3 -11.68 3 -11 3 C-11 2.34 -11 1.68 -11 1 C-7.26562152 0.12132271 -3.83225427 -0.08912219 0 0 Z " fill="#AFD1DF" transform="translate(23,1)"/>
<path d="M0 0 C2.31 0 4.62 0 7 0 C7 0.66 7 1.32 7 2 C6.01 2 5.02 2 4 2 C4 3.32 4 4.64 4 6 C4.99 6 5.98 6 7 6 C7 6.66 7 7.32 7 8 C6.01 8 5.02 8 4 8 C4 9.65 4 11.3 4 13 C4.99 13 5.98 13 7 13 C7 13.66 7 14.32 7 15 C4.69 15 2.38 15 0 15 C0 10.05 0 5.1 0 0 Z " fill="#4E95B2" transform="translate(66,29)"/>
<path d="M0 0 C2.31 0 4.62 0 7 0 C7 0.66 7 1.32 7 2 C6.01 2 5.02 2 4 2 C4 3.32 4 4.64 4 6 C4.99 6 5.98 6 7 6 C7 6.66 7 7.32 7 8 C6.01 8 5.02 8 4 8 C4 9.65 4 11.3 4 13 C4.99 13 5.98 13 7 13 C7 13.66 7 14.32 7 15 C4.69 15 2.38 15 0 15 C0 10.05 0 5.1 0 0 Z " fill="#4E95B2" transform="translate(116,6)"/>
<path d="M0 0 C5.28 0 10.56 0 16 0 C15.67 0.66 15.34 1.32 15 2 C13.68 2 12.36 2 11 2 C10.67 2.66 10.34 3.32 10 4 C10.78375 4.103125 11.5675 4.20625 12.375 4.3125 C15 5 15 5 17 8 C10.9453125 8.9765625 10.9453125 8.9765625 9 9 C8.34 8.34 7.68 7.68 7 7 C7 5.68 7 4.36 7 3 C7.66 3 8.32 3 9 3 C9 2.34 9 1.68 9 1 C5.7 1.33 2.4 1.66 -1 2 C-0.67 1.34 -0.34 0.68 0 0 Z " fill="#F2F8F7" transform="translate(14,0)"/>
<path d="M0 0 C1.32 0 2.64 0 4 0 C4 4.95 4 9.9 4 15 C2.68 15 1.36 15 0 15 C0 10.05 0 5.1 0 0 Z " fill="#4E95B2" transform="translate(92,29)"/>
<path d="M0 0 C2.64 0.66 5.28 1.32 8 2 C8 2.66 8 3.32 8 4 C8.66 4 9.32 4 10 4 C11.5625 6.8125 11.5625 6.8125 13 10 C12.67 10.99 12.34 11.98 12 13 C11.814375 12.360625 11.62875 11.72125 11.4375 11.0625 C10.05753944 8.57873787 10.05753944 8.57873787 6.375 8.25 C5.26125 8.1675 4.1475 8.085 3 8 C3.99 7.34 4.98 6.68 6 6 C3.8614515 3.8614515 2.86724686 3.57344937 0 3 C0 2.01 0 1.02 0 0 Z " fill="#A7CCDB" transform="translate(24,1)"/>
<path d="M0 0 C0.99 0 1.98 0 3 0 C3 0.99 3 1.98 3 3 C3.66 3.33 4.32 3.66 5 4 C7 6 7 6 7 9 C10.465 8.505 10.465 8.505 14 8 C13.34 9.32 12.68 10.64 12 12 C9.03 11.01 6.06 10.02 3 9 C3 7.35 3 5.7 3 4 C2.34 4 1.68 4 1 4 C0.67 2.68 0.34 1.36 0 0 Z " fill="#6BC7DC" transform="translate(20,25)"/>
<path d="M0 0 C0.99 0.33 1.98 0.66 3 1 C3.6875 3.0625 3.6875 3.0625 4 5 C4.66 5 5.32 5 6 5 C6.66 7.31 7.32 9.62 8 12 C4.81537776 11.05322042 3.26302338 10.33558155 1.1875 7.6875 C-0.06161737 4.86055017 -0.26151458 3.05100339 0 0 Z " fill="#E1EDF1" transform="translate(32,9)"/>
<path d="M0 0 C0.33 0 0.66 0 1 0 C1.33 1.65 1.66 3.3 2 5 C4.31 5.66 6.62 6.32 9 7 C7 9 7 9 3.875 9.125 C2.92625 9.08375 1.9775 9.0425 1 9 C0.67 9.99 0.34 10.98 0 12 C-1.28571429 3.42857143 -1.28571429 3.42857143 0 0 Z " fill="#5CC5D8" transform="translate(22,29)"/>
<path d="M0 0 C0.66 0 1.32 0 2 0 C0.48660464 3.43953492 -1.60783685 6.25355553 -3.87890625 9.21875 C-5.08636499 11.13722103 -5.56808198 12.78702676 -6 15 C-6.99 14.67 -7.98 14.34 -9 14 C-7.65686815 10.21908383 -5.97035316 7.34348084 -3.5 4.1875 C-2.8915625 3.39730469 -2.283125 2.60710938 -1.65625 1.79296875 C-0.83640625 0.90544922 -0.83640625 0.90544922 0 0 Z " fill="#89B9CD" transform="translate(10,4)"/>
<path d="M0 0 C0.85271484 0.30744141 0.85271484 0.30744141 1.72265625 0.62109375 C6.5084454 2.29092669 10.95943201 3.46376936 16 4 C16 4.66 16 5.32 16 6 C9.49686791 6.46450943 5.5825192 5.32575612 0 2 C0 1.34 0 0.68 0 0 Z " fill="#B6DFE2" transform="translate(8,42)"/>
<path d="M0 0 C0.66 0 1.32 0 2 0 C2 1.32 2 2.64 2 4 C2.66 4.33 3.32 4.66 4 5 C4.33 5.99 4.66 6.98 5 8 C2.36 7.67 -0.28 7.34 -3 7 C-2.34 6.67 -1.68 6.34 -1 6 C-0.34227572 2.97065509 -0.34227572 2.97065509 0 0 Z " fill="#6FCADE" transform="translate(19,16)"/>
<path d="M0 0 C0.66 0.33 1.32 0.66 2 1 C-1.88309282 4.64775386 -4.71201818 5.58525633 -10 6 C-7.64046906 3.64046906 -6.22104383 3.50858587 -3 3 C-3 2.34 -3 1.68 -3 1 C-2.01 0.67 -1.02 0.34 0 0 Z " fill="#B4DDE1" transform="translate(35,41)"/>
<path d="M0 0 C1.65 0 3.3 0 5 0 C5 0.66 5 1.32 5 2 C3.68 2.33 2.36 2.66 1 3 C0.67 4.32 0.34 5.64 0 7 C-0.66 5.68 -1.32 4.36 -2 3 C-1.34 3 -0.68 3 0 3 C0 2.01 0 1.02 0 0 Z " fill="#73C8DC" transform="translate(22,8)"/>
<path d="M0 0 C0.66 0 1.32 0 2 0 C0.92598892 2.91517292 0.22189824 4.77810176 -2 7 C-2.66 7 -3.32 7 -4 7 C-2.92598892 4.08482708 -2.22189824 2.22189824 0 0 Z " fill="#F0F8F8" transform="translate(9,8)"/>
<path d="M0 0 C2.9375 0.8125 2.9375 0.8125 6 2 C6.33 2.99 6.66 3.98 7 5 C4.69 4.34 2.38 3.68 0 3 C0 2.01 0 1.02 0 0 Z " fill="#83B6D0" transform="translate(24,1)"/>
</svg>
