<svg width="37" height="37" viewBox="0 0 37 37" fill="none" xmlns="http://www.w3.org/2000/svg">
<path d="M3.71761 26.4458L32.9516 9.71649L32.5291 8.11116L36.7537 9.04056L35.3173 13.1806L34.5569 11.9133L4.14007 29.8254L0 27.4596V9.29403L15.8844 0L29.1495 7.85768L5.49193 21.7142V18.0811L23.4886 7.51972L15.8844 3.21067L2.78821 10.8994V26.4458H3.71761Z" fill="white"/>
<path d="M26.5302 22.1367L22.3901 21.2073L22.8971 22.3902L7.09723 31.6842L15.9688 36.8382L31.7687 27.5441V17.2362L28.9805 18.8415L29.1494 25.9388L15.9688 33.6275L12.8426 31.6842L24.4179 25.0094L25.2628 26.2768L26.5302 22.1367Z" fill="#FFB600"/>
</svg>
